<svg width="197" height="160" viewBox="0 0 197 160" fill="none" xmlns="http://www.w3.org/2000/svg">
<path d="M54.1903 160C24.8772 160 0.901443 136.314 0.744125 107.2L0.743408 106.667C0.743408 88.2368 5.80948 70.5355 15.4525 55.0674C11.6636 49.3248 9.63206 42.6027 9.63206 35.5557C9.63242 15.95 25.5828 0 45.1877 0C55.7252 0 65.5542 4.64178 72.231 12.4672C80.757 10.0899 89.5722 8.88865 98.5243 8.88865C98.9808 8.88865 99.4385 8.89152 99.8968 8.89832C108.348 9.01515 116.691 10.2228 124.786 12.4973C131.462 4.65289 141.299 0 151.855 0C171.46 0 187.41 15.95 187.41 35.5557C187.41 42.6357 185.362 49.3828 181.542 55.1402C190.749 69.8739 195.817 86.6615 196.266 104.092C196.293 105.12 196.303 106.147 196.299 107.17C196.149 136.303 172.174 160 142.853 160H54.1903Z" fill="url(#paint0_linear_7_596)"/>
<path d="M187.38 104.321C186.903 85.8161 180.694 68.6849 170.482 54.6302C175.439 49.7878 178.522 43.0331 178.522 35.5553C178.522 20.8276 166.582 8.88865 151.855 8.88865C141.683 8.88865 132.844 14.5854 128.347 22.9609C119.383 19.7422 109.77 17.9239 99.7747 17.7859C88.8517 17.6354 78.3737 19.4573 68.6727 22.9154C64.1685 14.5643 55.3415 8.88865 45.1882 8.88865C30.4605 8.88865 18.5216 20.8276 18.5216 35.5553C18.5216 43.0009 21.5758 49.7308 26.4964 54.5686C15.8891 69.2078 9.6322 87.2058 9.6322 106.667C9.6322 106.829 9.63256 106.99 9.63364 107.152C9.76444 131.527 29.8155 151.111 54.1905 151.111H142.853C167.237 151.111 187.285 131.513 187.41 107.129C187.414 106.196 187.404 105.26 187.38 104.321L187.38 104.321Z" fill="black"/>
<path d="M54.1907 146.667C32.1899 146.667 14.195 128.929 14.0779 107.128L14.0771 106.667C14.0771 60.1037 51.9593 22.2216 98.5225 22.2216C98.9157 22.2216 99.3185 22.2241 99.7134 22.2298C121.518 22.5301 142.146 31.2081 157.796 46.665C173.447 62.1234 182.376 82.64 182.937 104.435C182.96 105.329 182.97 106.22 182.965 107.107C182.854 128.919 164.86 146.667 142.853 146.667H54.1907Z" fill="white"/>
<path d="M147.011 63.054C135.907 52.952 115.684 52.7029 109.956 61.5443C104.54 69.9029 113.34 84.441 120.638 91.7293C128.247 99.3286 142.882 107.693 150.823 102.411C159.715 96.4983 159.204 74.1476 147.011 63.054Z" fill="black"/>
<path d="M50.0065 63.054C61.1105 52.952 81.3332 52.7029 87.0619 61.5443C92.4777 69.9029 83.6776 84.441 76.3797 91.7293C68.7703 99.3286 54.1358 107.693 46.1947 102.411C37.3028 96.4983 37.8131 74.1476 50.0065 63.054Z" fill="black"/>
<path d="M120.643 110.179C121.627 117.173 109.902 126.355 98.5244 126.355C87.1455 126.356 75.4191 117.173 76.4031 110.179C77.3442 103.496 89.768 99.7074 98.523 99.7074C107.278 99.7074 119.702 103.495 120.643 110.179Z" fill="black"/>
<defs>
<linearGradient id="paint0_linear_7_596" x1="165.945" y1="-5.37533" x2="0.74343" y2="159.827" gradientUnits="userSpaceOnUse">
<stop stop-color="white"/>
<stop offset="0.180645" stop-color="#BD8EFF"/>
<stop offset="1" stop-color="#4D33FF"/>
</linearGradient>
</defs>
</svg>
